<svg xmlns="http://www.w3.org/2000/svg" xmlns:xlink="http://www.w3.org/1999/xlink" version="1.1" x="0px" y="0px" viewBox="0 0 100 125" enable-background="new 0 0 100 100" xml:space="preserve"><g fill="red"><path d="M87.301,6.568c-0.675-0.665-1.468-1.126-2.381-1.383C84.459,5.058,84.017,5,83.587,5c-0.967,0-1.875,0.289-2.815,0.727   c-1.573,0.732-3.155,1.387-4.643,2.286c-1.848,1.107-3.535,2.618-5.17,4.011c-2.918,2.481-5.57,5.279-8.269,7.983   c-2.922,2.927-5.693,6.002-8.425,9.1c-1.829,2.072-3.673,4.144-5.427,6.278c-0.808,0.984-1.623,1.963-2.438,2.942   c-2.221-2.331-4.445-4.658-6.669-6.987c-2.129-2.234-4.344-4.382-6.52-6.567c-1.264-1.273-2.528-2.542-3.792-3.816   c-0.984-0.988-2.067-1.887-3.108-2.818c-1.041-0.931-2.072-1.863-3.132-2.766c-0.822-0.698-1.644-1.392-2.466-2.091   c-1.107-0.941-2.262-1.73-3.521-2.471c-0.626-0.373-1.332-0.552-2.036-0.552c-1.065,0-2.126,0.411-2.901,1.189   c-1.501,1.501-1.597,4.056-0.144,5.618c2.871,3.927,6.04,7.633,9.149,11.376c3.103,3.735,6.363,7.352,9.542,11.02   c2.519,2.909,4.954,5.889,7.401,8.857c-0.565,0.713-1.137,1.421-1.692,2.141c-3.773,4.904-7.541,9.808-11.191,14.808   c-1.725,2.367-3.431,4.742-5.132,7.119c-1.416,1.977-2.851,3.944-4.03,6.068c-2.338,4.201-4.448,10.669-0.071,14.413   c0.912,0.903,1.986,1.53,3.222,1.877c1.887,0.518,3.939,0.247,5.627-0.737c2.218-1.297,3.641-3.801,3.635-6.35   c0.195-0.594,0.401-1.181,0.619-1.771c1.977-4.306,4.427-8.448,6.918-12.47c1.269-2.048,2.542-4.101,3.811-6.149   c0.946-1.521,2.034-2.965,3.046-4.438c1.051-1.529,2.097-3.05,3.162-4.558c0.584,0.761,1.167,1.523,1.755,2.28   c-0.371-0.48-0.741-0.955-1.112-1.435c3.208,4.519,6.444,9.014,9.419,13.691c1.649,2.595,3.288,5.189,4.9,7.808   c1.796,2.913,3.588,5.888,6.083,8.273c2.837,2.718,7.128,3.379,10.573,1.364c1.948-1.14,3.407-3.036,4.011-5.213   c0.637-2.319,0.247-4.638-0.879-6.724c-1.107-2.053-2.599-3.825-4.025-5.655c-0.965-1.245-2.02-2.433-3.037-3.635   c-1.977-2.329-3.963-4.652-5.926-6.99c-4.306-5.119-8.687-10.149-13.262-15.025c0.96-1.248,1.921-2.496,2.879-3.746   c3.793-4.612,7.616-9.199,11.648-13.604c3.42-3.737,6.923-7.518,10.798-10.81c1.065,0.41,2.25,0.474,3.358,0.17   c1.421-0.39,2.381-1.278,3.198-2.457c1.003-1.445,1.558-3.113,2.176-4.747C89.35,10.061,88.561,7.832,87.301,6.568z"/></g></svg>